<svg xmlns="http://www.w3.org/2000/svg"  viewBox="0 0 50 50" width="150px" height="150px"><path d="M 11.019531 3 C 10.71875 2.992188 10.433594 3.125 10.238281 3.351563 C 10.042969 3.582031 9.960938 3.882813 10.015625 4.179688 C 10.015625 4.179688 10.402344 6.226563 12.039063 8.589844 C 13.332031 10.457031 15.476563 12.550781 18.765625 14.167969 C 17.710938 14.496094 16.742188 14.882813 15.863281 15.324219 C 15.160156 15.148438 14.355469 15 13 15 C 8.554688 15 5.300781 18.285156 5.300781 18.285156 C 4.953125 18.628906 4.902344 19.171875 5.183594 19.574219 C 5.464844 19.972656 5.992188 20.109375 6.433594 19.902344 C 6.433594 19.902344 8.300781 19 11 19 C 11.132813 19 11.132813 19.027344 11.25 19.03125 C 10.65625 19.703125 10.007813 20.363281 9.574219 21.058594 C 7.054688 21.210938 5.328125 22.574219 4.367188 23.917969 C 3.472656 25.167969 3.265625 26.140625 3.1875 26.425781 C 3.183594 26.4375 3.167969 26.441406 3.164063 26.453125 L 3.171875 26.460938 C 3.164063 26.492188 3.023438 26.777344 3.023438 26.777344 C 2.917969 27.25 3.164063 27.730469 3.609375 27.917969 C 4.054688 28.105469 4.574219 27.949219 4.835938 27.546875 C 5.3125 26.816406 6.042969 26.421875 6.816406 26.203125 C 7.078125 26.128906 7.214844 26.164063 7.460938 26.128906 C 7.222656 27.226563 7.074219 27.960938 7.046875 28.394531 C 5.085938 29.40625 4.023438 31.214844 3.527344 32.773438 C 3.035156 34.332031 3.050781 35.449219 3.050781 35.703125 C 3.046875 35.714844 3.039063 35.722656 3.035156 35.734375 L 3.046875 35.734375 C 3.042969 35.757813 3 36.011719 3 36.011719 C 3.003906 36.507813 3.375 36.929688 3.871094 36.992188 C 4.367188 37.058594 4.832031 36.746094 4.964844 36.265625 C 5.359375 34.835938 6 34.089844 6.640625 33.640625 C 7.027344 33.367188 7.347656 33.347656 7.703125 33.25 C 7.90625 33.949219 8.121094 34.632813 8.390625 35.257813 C 5.886719 38.078125 6 42.03125 6 42.03125 C 6.015625 42.511719 6.367188 42.914063 6.839844 42.988281 C 7.3125 43.066406 7.769531 42.796875 7.9375 42.347656 C 8.886719 39.8125 9.855469 39.359375 10.433594 39.207031 C 11.800781 41.488281 13 43.488281 13 46 C 12.996094 46.359375 13.183594 46.695313 13.496094 46.878906 C 13.808594 47.058594 14.191406 47.058594 14.503906 46.878906 C 14.816406 46.695313 15.003906 46.359375 15 46 C 15 42.558594 13.277344 40.03125 11.765625 37.488281 C 11.570313 37.167969 11.21875 36.980469 10.84375 37.003906 C 10.519531 37.023438 9.785156 37.292969 9.03125 37.746094 C 9.324219 37.171875 9.679688 36.609375 10.175781 36.15625 C 10.5 35.855469 10.589844 35.382813 10.402344 34.988281 C 9.933594 34 9.546875 32.953125 9.296875 31.789063 C 9.191406 31.292969 8.734375 30.957031 8.230469 31 C 7.726563 31.046875 6.976563 31.386719 6.265625 31.71875 C 6.753906 30.96875 7.382813 30.304688 8.355469 29.9375 C 8.742188 29.789063 9 29.414063 9 29 C 9 29 8.996094 27.4375 9.695313 25.296875 C 9.789063 24.996094 9.742188 24.667969 9.5625 24.414063 C 9.382813 24.15625 9.089844 23.996094 8.777344 23.984375 C 8.421875 23.972656 7.648438 24.078125 6.910156 24.203125 C 7.644531 23.546875 8.550781 23 10 23 C 9.949219 23 9.964844 23.003906 10.070313 23.003906 C 10.429688 23.003906 10.757813 22.8125 10.9375 22.503906 C 11.621094 21.320313 12.546875 20.125 13.800781 19.046875 C 14.070313 18.8125 14.199219 18.457031 14.132813 18.105469 C 14.070313 17.757813 13.824219 17.46875 13.492188 17.347656 C 13.164063 17.230469 12.582031 17.214844 12.109375 17.15625 C 12.414063 17.113281 12.6875 17 13 17 C 14.449219 17 15.300781 17.148438 15.738281 17.285156 C 15.992188 17.363281 16.265625 17.339844 16.5 17.21875 C 18.015625 16.425781 19.855469 15.785156 22.089844 15.398438 C 22.539063 15.320313 22.878906 14.945313 22.914063 14.488281 C 22.945313 14.03125 22.667969 13.609375 22.234375 13.464844 C 21.550781 13.242188 21.003906 12.960938 20.410156 12.703125 C 23.960938 13.867188 26.957031 14 26.957031 14 L 26.78125 13.976563 C 26.78125 13.976563 27.53125 14.171875 28.359375 13.847656 C 29.191406 13.527344 30 12.496094 30 11 C 30 10.601563 29.824219 10.28125 29.664063 9.957031 C 30.894531 10.566406 32.152344 11.175781 33.097656 11.898438 C 34.414063 12.90625 35.441406 13.953125 36.113281 14.78125 C 36.453125 15.195313 36.703125 15.558594 36.855469 15.816406 C 36.929688 15.941406 36.960938 16.070313 36.980469 16.128906 C 36.960938 16.238281 36.929688 16.359375 36.871094 16.488281 C 36.867188 16.492188 36.867188 16.492188 36.867188 16.492188 C 36.347656 17.597656 36.832031 19.007813 38.011719 19.480469 C 38.011719 19.480469 38.011719 19.480469 38.011719 19.484375 L 41.628906 20.925781 C 41.640625 20.933594 41.652344 20.9375 41.660156 20.941406 C 41.660156 20.941406 41.859375 21.027344 42.011719 21.09375 C 42.027344 21.34375 42.179688 23 44 23 C 44 22.671875 43.917969 22.410156 43.808594 22.175781 C 44.460938 22.71875 44.964844 23.371094 45 24.054688 C 45.003906 24.070313 45.003906 24.082031 45.003906 24.09375 C 45.007813 24.101563 45.003906 24.105469 45.003906 24.109375 C 45.007813 24.148438 45.007813 24.1875 45.007813 24.230469 C 45.007813 24.230469 41.386719 20.289063 29.292969 20 C 28.199219 20 27.03125 20.835938 27.03125 22.390625 L 27.03125 22.585938 L 27.070313 22.777344 C 27.335938 24.125 28.058594 26.847656 30.648438 30.265625 C 29.304688 29.4375 28.121094 28.011719 27.183594 26.480469 C 25.730469 24.097656 24.953125 21.691406 24.953125 21.691406 C 24.8125 21.265625 24.40625 20.980469 23.957031 21 C 23.84375 21.003906 23.734375 21.03125 23.628906 21.074219 C 18.917969 22.957031 19.003906 27.980469 19.003906 28.015625 C 19.011719 30.519531 20.242188 32.351563 21.894531 33.597656 C 23.554688 34.851563 25.609375 35.664063 27.582031 36.574219 C 29.554688 37.484375 31.429688 38.472656 32.777344 39.886719 C 34.121094 41.300781 35 43.113281 35 46 C 34.996094 46.359375 35.183594 46.695313 35.496094 46.878906 C 35.808594 47.058594 36.191406 47.058594 36.503906 46.878906 C 36.816406 46.695313 37.003906 46.359375 37 46 C 37 42.683594 35.878906 40.25 34.222656 38.507813 C 32.570313 36.765625 30.445313 35.691406 28.417969 34.757813 C 26.390625 33.824219 24.445313 33.015625 23.105469 32.003906 C 21.761719 30.992188 21 29.910156 21 28 C 21 27.988281 21 27.972656 21 27.960938 C 21 27.960938 20.96875 25.15625 23.503906 23.515625 C 23.886719 24.507813 24.472656 25.878906 25.480469 27.519531 C 27.078125 30.140625 29.53125 33 33 33 L 34 33 C 35.121094 33 37.542969 32.332031 38 32 C 35.457031 32 34 31 34 31 C 34 31 35.792969 30.5 36 30 C 35.933594 30.003906 35.871094 30.003906 35.804688 30.003906 C 34.085938 30.003906 32 29 32 29 C 32 29 33.082031 28.917969 34 28 C 30.984375 27.894531 29.695313 24.96875 29.199219 23.101563 C 31.195313 24.917969 35.5625 28.675781 39 30 C 43.542969 31.75 43.917969 32.125 44 33 C 44.167969 31.332031 42.625 30.5 42 30 C 44.207031 30 46 31 46 31 C 44.875 29.707031 44.328125 29.363281 41 29 C 36.808594 28.542969 31.917969 23.980469 29.964844 22 L 30 22 C 32.773438 22.375 34.5625 25 34.5625 25 C 34.5625 25 35 23.214844 35 22.375 C 35 22.375 36.429688 23.117188 37.535156 26 C 38.125 24.746094 38 23 38 23 C 38 23 40.195313 25.1875 40.535156 27 C 41.183594 25.140625 41 24 41 24 C 42.898438 24.621094 43.535156 28 43.535156 28 C 43.535156 28 44 27.507813 44 26 C 45.507813 27.296875 45 29 45 29 C 45 29 47.039063 26.714844 46.992188 24.164063 C 47 24.109375 47 24.054688 47 24 C 47 23.980469 47 23.964844 47 23.945313 C 46.898438 22.15625 45.613281 20.949219 44.511719 20.191406 C 43.410156 19.441406 42.34375 19.0625 42.34375 19.0625 L 38.753906 17.625 C 38.640625 17.578125 38.609375 17.496094 38.679688 17.34375 L 38.679688 17.339844 C 38.855469 16.96875 39 16.519531 39 16 C 39 15.382813 38.800781 15.183594 38.578125 14.804688 C 38.359375 14.425781 38.054688 13.996094 37.667969 13.515625 C 36.886719 12.5625 35.761719 11.421875 34.3125 10.3125 C 31.421875 8.09375 27.210938 6 22 6 C 21.488281 6 21.0625 6.382813 21.003906 6.890625 C 20.949219 7.398438 21.285156 7.867188 21.78125 7.976563 C 21.78125 7.976563 23.472656 8.355469 25.128906 9.011719 C 25.960938 9.339844 26.773438 9.746094 27.308594 10.144531 C 27.84375 10.542969 28 10.863281 28 11 C 28 11.953125 27.808594 11.921875 27.640625 11.984375 C 27.46875 12.050781 27.21875 12.023438 27.21875 12.023438 C 27.160156 12.011719 27.101563 12.003906 27.042969 12 C 27.042969 12 15.675781 11.375 11.902344 3.5625 C 11.738281 3.226563 11.394531 3.007813 11.019531 3 Z M 31 15 L 32.566406 16.566406 C 32.84375 16.84375 33.21875 17 33.609375 17 L 35 17 C 34.582031 14.792969 31 15 31 15 Z"/></svg>